<svg width="20" height="20" viewBox="0 0 20 20" fill="none" xmlns="http://www.w3.org/2000/svg">
<path d="M11.9946 9.64464L11.6398 9.99858L11.9946 10.3525L19.1543 17.4966L19.1554 17.4977C19.2646 17.606 19.3512 17.7349 19.4104 17.8769C19.4695 18.0189 19.5 18.1712 19.5 18.3251C19.5 18.4789 19.4695 18.6312 19.4104 18.7732C19.3512 18.9152 19.2646 19.0441 19.1554 19.1524L19.1525 19.1553C19.0441 19.2646 18.9153 19.3512 18.7733 19.4104C18.6314 19.4695 18.4791 19.5 18.3253 19.5C18.1715 19.5 18.0192 19.4695 17.8773 19.4104C17.7353 19.3512 17.6064 19.2646 17.4981 19.1553L17.4971 19.1543L10.354 11.9935L10 11.6387L9.64601 11.9935L2.50291 19.1543L2.50188 19.1553C2.39356 19.2646 2.26471 19.3512 2.12274 19.4104C1.98078 19.4695 1.82851 19.5 1.67471 19.5C1.52092 19.5 1.36865 19.4695 1.22668 19.4104C1.08472 19.3512 0.955859 19.2646 0.847546 19.1553L0.844647 19.1524C0.735444 19.0441 0.648765 18.9152 0.589611 18.7732C0.530457 18.6312 0.5 18.4789 0.5 18.3251C0.5 18.1712 0.530457 18.0189 0.589611 17.8769C0.648765 17.7349 0.735444 17.606 0.844649 17.4977L0.845688 17.4966L8.00544 10.3525L8.36015 9.99858L8.00544 9.64464L0.8461 2.50094C0.846051 2.50089 0.846003 2.50084 0.845955 2.50079C0.626269 2.281 0.502842 1.98293 0.502842 1.67211C0.502842 1.36122 0.626323 1.06308 0.8461 0.843278C1.06587 0.623472 1.36394 0.5 1.67471 0.5C1.98541 0.5 2.2834 0.62341 2.50316 0.843111C2.50321 0.843167 2.50327 0.843222 2.50332 0.843278L9.64601 8.00363L10 8.3585L10.354 8.00363L17.4967 0.843278C17.7165 0.623472 18.0145 0.5 18.3253 0.5C18.6361 0.5 18.9341 0.623472 19.1539 0.843278C19.3737 1.06309 19.4972 1.36122 19.4972 1.67211C19.4972 1.98296 19.3737 2.28106 19.154 2.50086C19.1539 2.50089 19.1539 2.50091 19.1539 2.50094L11.9946 9.64464Z" fill="black" stroke="black"/>
</svg>
