<svg width="83" height="83" viewBox="0 0 83 83" fill="none" xmlns="http://www.w3.org/2000/svg">
<path d="M41.4992 0C18.6154 0 0 18.6169 0 41.5C0 64.3831 18.6154 83 41.4992 83C64.3829 83 83 64.3831 83 41.5C83 18.6169 64.3829 0 41.4992 0ZM41.4992 77.5573C21.6173 77.5573 5.44272 61.3818 5.44272 41.5C5.44272 21.618 21.6171 5.44293 41.4992 5.44293C61.3812 5.44293 77.5566 21.6182 77.5566 41.5C77.5569 61.3818 61.381 77.5573 41.4992 77.5573Z" fill="#A89365"/>
<path d="M56.5242 27.9141L35.1246 49.3128L26.4741 40.6642C25.4111 39.6024 23.689 39.6018 22.626 40.6648C21.5626 41.7283 21.5626 43.4505 22.626 44.5135L33.2008 55.0867C33.7322 55.6175 34.4284 55.8831 35.1246 55.8831C35.8207 55.8831 36.5188 55.6175 37.05 55.0859C37.0516 55.0836 37.0529 55.0813 37.0556 55.0786L60.3721 31.7622C61.4356 30.6998 61.4356 28.9763 60.3721 27.9139C59.3093 26.8509 57.586 26.8509 56.5242 27.9141Z" fill="#A89365"/>
</svg>
