<svg width="206" height="205" viewBox="0 0 206 205" fill="none" xmlns="http://www.w3.org/2000/svg">
<path opacity="0.5" fill-rule="evenodd" clip-rule="evenodd" d="M478.252 -37.9626C480.093 93.0017 362.403 207.381 235.332 202.086L235.308 202.085L235.285 202.086C107.891 203.869 -3.28653 87.5524 1.90134 -37.9383L1.90231 -37.9628L1.90195 -37.9873C0.196045 -163.81 113.296 -273.526 235.261 -268.397L235.284 -268.396L235.308 -268.396C357.592 -270.016 464.171 -158.371 459.13 -38.0126L459.129 -37.9881L459.129 -37.9635C460.707 82.7113 352.16 187.802 235.333 182.811L235.309 182.81L235.286 182.811C118.099 184.292 16.1378 77.264 21.0229 -37.9373L21.024 -37.9617L21.0237 -37.9861C19.6191 -153.465 123.495 -254.022 235.26 -249.122L235.283 -249.121L235.307 -249.121C347.383 -250.501 444.756 -148.028 440.007 -38.0137L440.006 -37.9894L440.006 -37.965C441.266 72.3846 341.989 168.26 235.334 163.536L235.311 163.535L235.287 163.536C128.309 164.751 35.5439 66.9486 40.1465 -37.936L40.1475 -37.9604L40.1472 -37.9848C39.0145 -143.183 133.712 -234.442 235.258 -229.847L235.282 -229.846L235.306 -229.846C337.183 -230.925 425.332 -137.748 420.884 -38.015L420.883 -37.9909L420.883 -37.9666C421.843 62.0854 331.791 148.718 235.336 144.261L235.312 144.26L235.288 144.26C138.519 145.21 54.9592 56.6435 59.2699 -37.9345L59.271 -37.9588L59.2708 -37.983C58.4373 -132.903 143.917 -214.855 235.257 -210.572L235.28 -210.571L235.304 -210.571C326.918 -211.357 405.971 -127.461 401.761 -38.0172L401.759 -37.9926L401.76 -37.9679C402.493 51.803 321.529 129.13 235.337 124.986L235.314 124.985L235.29 124.986C148.765 125.634 74.3472 46.364 78.3934 -37.9324L78.3945 -37.9568L78.3944 -37.9812C77.8232 -122.601 154.152 -195.303 235.255 -191.297L235.278 -191.296L235.302 -191.296C316.691 -191.807 386.555 -117.164 382.638 -38.0194L382.636 -37.9948L382.637 -37.9702C383.08 41.5107 311.306 109.551 235.339 105.711L235.316 105.71L235.293 105.71C158.982 106.048 93.7447 36.0851 97.5149 -37.9297L97.5162 -37.9543L97.5161 -37.9789C97.2086 -112.31 164.393 -175.733 235.252 -172.023L235.276 -172.021L235.299 -172.021C306.489 -172.232 367.13 -106.878 363.515 -38.0221L363.513 -37.9977L363.513 -37.9734C363.658 31.1666 301.099 90.0444 235.343 86.4365L235.319 86.4352L235.295 86.4352C169.186 86.5445 113.17 25.7445 116.638 -37.9266L116.64 -37.951V-37.9755C116.621 -101.982 174.599 -156.189 235.249 -152.748L235.272 -152.746H235.296C296.261 -152.693 347.741 -96.5558 344.392 -38.0263L344.39 -38.0017L344.39 -37.9771C344.264 20.8821 290.887 70.4644 235.347 67.1616L235.323 67.1602L235.3 67.1601C179.398 66.9692 132.596 15.4604 135.762 -37.9223L135.763 -37.9464L135.763 -37.9706C136.042 -91.679 184.802 -136.636 235.244 -133.473L235.267 -133.472L235.291 -133.472C286.084 -133.145 328.296 -86.2712 325.268 -38.0312L325.267 -38.0071L325.267 -37.9828C324.852 10.5869 280.683 50.8836 235.353 47.8874L235.329 47.8858L235.306 47.8856C189.655 47.3938 151.959 5.18431 154.885 -37.9147L154.886 -37.9397L154.887 -37.9647C155.4 -81.3929 195.05 -117.056 235.236 -114.199L235.26 -114.197L235.284 -114.197C275.815 -113.57 308.94 -75.9888 306.147 -38.0408L306.145 -38.0159L306.145 -37.991C305.47 0.290833 270.457 31.3281 235.362 28.6131L235.339 28.6113L235.315 28.6108C199.873 27.8503 171.389 -5.10345 174.006 -37.9041L174.008 -37.9288L174.008 -37.9534C174.815 -71.0841 205.237 -97.4985 235.224 -94.9247L235.247 -94.9228L235.271 -94.922C265.606 -94.0008 289.51 -65.7203 287.025 -38.0552L287.023 -38.0302L287.022 -38.0052C286.082 -10.0134 260.245 11.7412 235.378 9.33955L235.355 9.33734L235.332 9.33635C210.103 8.28178 190.787 -15.3772 193.127 -37.8828L193.13 -37.9073L193.131 -37.932C194.236 -60.7422 215.4 -77.9443 235.199 -75.6523L235.224 -75.6494L235.249 -75.648C255.355 -74.5089 270.08 -55.4044 267.905 -38.0866L267.902 -38.0618L267.9 -38.0369C266.678 -20.3817 250.077 -7.78389 235.42 -9.93036L235.395 -9.93399L235.37 -9.93617C220.366 -11.2358 210.228 -25.6487 212.244 -37.8293L212.248 -37.8547L212.25 -37.8802C213.589 -50.4061 225.583 -58.3398 235.127 -56.3889L235.152 -56.3838L235.177 -56.3802C245.1 -54.9699 250.612 -45.2145 248.802 -38.1982L248.796 -38.174L248.791 -38.1494C248.061 -34.475 245.882 -31.7902 243.308 -30.2424C240.713 -28.6819 237.794 -28.3185 235.601 -29.1597L235.573 -29.1705L235.544 -29.1793C233.171 -29.9016 231.72 -31.5122 231.052 -33.1867C230.364 -34.9104 230.544 -36.5641 231.202 -37.4425L231.225 -37.4732L231.246 -37.5059C231.919 -38.5896 232.833 -38.8676 233.498 -38.7885C234.262 -38.6976 234.455 -38.2641 234.437 -38.0526C234.395 -37.5694 234.746 -37.1429 235.221 -37.1002C235.696 -37.0575 236.115 -37.4146 236.157 -37.8978C236.292 -39.4567 234.941 -40.3856 233.699 -40.5334C232.367 -40.6919 230.826 -40.0936 229.806 -38.4765C228.683 -36.9479 228.623 -34.6036 229.452 -32.5257C230.304 -30.3914 232.136 -28.3925 235.02 -27.505C237.804 -26.4495 241.258 -26.9691 244.187 -28.7299C247.141 -30.5064 249.64 -33.5882 250.479 -37.7793C252.548 -45.8763 246.286 -56.56 235.441 -58.1165C224.886 -60.2562 211.995 -51.5934 210.537 -38.0961C208.364 -24.8632 219.265 -9.58293 235.198 -8.18784C250.852 -5.91217 268.316 -19.2558 269.62 -37.8884C271.91 -56.2411 256.417 -76.1935 235.369 -77.4008C214.585 -79.7903 192.574 -61.8363 191.408 -38.0432C188.975 -14.5043 209.071 9.98312 235.238 11.0907C261.076 13.5713 287.759 -8.93288 288.747 -37.9201C291.308 -66.6131 266.621 -95.7134 235.346 -96.6774C204.388 -99.3196 173.129 -72.1477 172.283 -38.0219C169.6 -4.19901 198.868 29.5717 235.255 30.3667C271.318 33.1415 307.163 1.34354 307.871 -37.9344C310.723 -76.9053 276.809 -115.298 235.333 -115.953C194.181 -118.864 153.7 -82.4385 153.16 -38.011C150.181 6.1082 188.668 49.1258 235.264 49.642C281.561 52.6874 326.555 11.6241 326.993 -37.9434C330.07 -87.1984 287.069 -134.88 235.326 -135.228C183.918 -138.437 134.336 -92.7099 134.037 -38.004C130.826 16.3929 178.418 68.7083 235.27 68.9168C291.775 72.2619 345.974 21.9094 346.117 -37.9487C349.509 -97.4942 297.235 -154.434 235.321 -154.503C173.708 -157.985 114.909 -103.006 114.913 -37.999C111.405 26.6853 168.213 88.2883 235.274 88.1921C301.995 91.8379 365.372 32.1865 365.24 -37.9526C368.894 -107.823 307.458 -173.978 235.317 -173.778C163.497 -177.524 95.4925 -113.329 95.7893 -37.9959C91.9827 37.0337 158.017 107.795 235.277 107.467C312.205 111.341 384.797 42.528 384.363 -37.9556C388.316 -118.114 317.655 -193.556 235.315 -193.053C153.25 -197.092 76.1042 -123.615 76.6676 -37.9932C72.5881 47.316 147.802 127.383 235.279 126.742C322.432 130.918 404.213 52.816 403.486 -37.9578C407.729 -128.415 327.878 -213.108 235.313 -212.328C143.012 -216.641 56.7167 -133.913 57.544 -37.992C53.2019 57.5973 137.559 146.962 235.281 146.017C332.699 150.504 423.565 63.0934 422.61 -37.9595C427.088 -138.704 338.141 -232.678 235.311 -231.603C132.804 -236.227 37.2919 -144.19 38.4205 -37.9903C33.7883 67.9058 127.352 166.504 235.283 165.293C342.898 170.044 442.989 73.391 441.733 -37.961C446.511 -148.986 348.339 -252.255 235.31 -250.878C122.584 -255.805 17.8949 -154.47 19.2969 -37.9887C14.3838 78.224 117.145 186.046 235.284 184.568C353.07 189.585 462.432 83.7167 460.856 -37.9623C465.925 -159.332 358.545 -271.771 235.308 -270.153C112.385 -275.308 -1.52899 -164.814 0.175171 -37.9885C-5.03995 88.5137 106.938 205.625 235.285 203.843C363.324 209.163 481.834 93.9904 479.978 -37.9878C479.972 -38.4729 479.58 -38.8605 479.103 -38.8535C478.626 -38.8466 478.245 -38.4477 478.252 -37.9626Z" fill="white"/>
</svg>
