<svg width="278" height="276" viewBox="0 0 278 276" fill="none" xmlns="http://www.w3.org/2000/svg">
<g opacity="0.5" filter="url(#filter0_d_2_203)">
<path fill-rule="evenodd" clip-rule="evenodd" d="M550.004 -2.8837C552.107 143.722 417.743 271.762 272.671 265.835L272.644 265.834L272.617 265.835C127.176 267.831 0.247864 137.622 6.17065 -2.85645L6.17175 -2.88385L6.17139 -2.91132C4.22382 -143.761 133.346 -266.582 272.59 -260.84L272.616 -260.839L272.643 -260.839C412.251 -262.652 533.929 -137.673 528.173 -2.93967L528.172 -2.91217L528.172 -2.88467C529.974 132.203 406.049 249.845 272.672 244.258L272.645 244.257L272.618 244.258C138.83 245.915 22.424 126.105 28.0012 -2.85538L28.0023 -2.88263L28.002 -2.90994C26.3985 -132.181 144.99 -244.747 272.588 -239.263L272.615 -239.262L272.642 -239.262C400.595 -240.807 511.763 -126.094 506.341 -2.94092L506.34 -2.91364L506.34 -2.88635C507.778 120.643 394.437 227.969 272.673 222.681L272.646 222.68L272.619 222.68C150.486 224.041 44.5792 114.558 49.8338 -2.85391L49.8351 -2.88123L49.8347 -2.90854C48.5416 -120.671 156.654 -222.83 272.587 -217.686L272.614 -217.685L272.641 -217.685C388.95 -218.893 489.587 -114.587 484.509 -2.94235L484.508 -2.91528L484.508 -2.88815C485.604 109.113 382.795 206.093 272.675 201.104L272.648 201.103L272.621 201.103C162.143 202.166 66.7451 103.022 71.6664 -2.8522L71.6677 -2.87936L71.6675 -2.90656C70.716 -109.163 168.306 -200.903 272.585 -196.109L272.612 -196.108L272.639 -196.108C377.232 -196.987 467.483 -103.071 462.677 -2.94482L462.675 -2.91721L462.676 -2.88959C463.513 97.6031 371.079 184.166 272.677 179.527L272.65 179.526L272.623 179.526C173.84 180.252 88.8797 91.5145 93.4991 -2.84979L93.5004 -2.87714L93.5002 -2.90451C92.8481 -97.631 179.99 -179.016 272.583 -174.532L272.609 -174.531L272.636 -174.531C365.556 -175.103 445.317 -91.5441 440.845 -2.94727L440.843 -2.91971L440.843 -2.89218C441.35 86.0816 359.408 162.248 272.679 157.95L272.653 157.949L272.626 157.949C185.505 158.327 111.025 80.0079 115.33 -2.84686L115.331 -2.87436L115.331 -2.90192C114.98 -86.1111 191.682 -157.108 272.58 -152.955L272.606 -152.954L272.633 -152.954C353.909 -153.189 423.14 -80.0299 419.013 -2.95023L419.011 -2.92297L419.011 -2.89569C419.176 74.5019 347.755 140.412 272.683 136.373L272.656 136.371L272.629 136.372C197.154 136.494 133.203 68.4323 137.162 -2.84335L137.164 -2.8707V-2.89807C137.143 -74.5493 203.334 -135.231 272.575 -131.378L272.602 -131.377H272.629C342.231 -131.316 401.004 -68.4748 397.181 -2.95493L397.179 -2.92746L397.179 -2.8999C397.035 62.9891 336.096 118.493 272.688 114.796L272.661 114.794L272.634 114.794C208.813 114.581 155.381 56.9198 158.994 -2.83856L158.996 -2.86551L158.996 -2.89258C159.315 -63.0156 214.983 -113.342 272.57 -109.801L272.597 -109.8L272.624 -109.8C330.612 -109.434 378.805 -56.962 375.348 -2.96045L375.346 -2.93341L375.346 -2.90631C374.873 51.4643 324.447 96.5739 272.694 93.2197L272.668 93.218L272.641 93.2177C220.523 92.6672 177.487 45.4165 180.827 -2.83002L180.829 -2.85797L180.829 -2.88596C181.415 -51.5009 226.682 -91.4231 272.562 -88.225L272.588 -88.2231L272.615 -88.2227C318.888 -87.5215 356.706 -45.4515 353.518 -2.97119L353.516 -2.94333L353.516 -2.91541C352.745 39.9386 312.772 74.6827 272.705 71.6435L272.678 71.6414L272.651 71.6409C232.188 70.7896 199.669 33.9 202.656 -2.81821L202.659 -2.84576L202.659 -2.87338C203.581 -39.961 238.313 -69.5302 272.547 -66.649L272.574 -66.6468L272.601 -66.646C307.234 -65.6147 334.524 -33.9565 331.687 -2.98727L331.684 -2.95938L331.683 -2.93134C330.611 28.4037 301.113 52.7565 272.723 50.068L272.697 50.0655L272.671 50.0644C243.868 48.8839 221.815 22.3993 224.487 -2.79428L224.49 -2.82178L224.491 -2.8494C225.752 -28.3839 249.915 -47.6406 272.519 -45.0748L272.547 -45.0716L272.576 -45.07C295.53 -43.7948 312.341 -22.4085 309.858 -3.02246L309.854 -2.99472L309.852 -2.96686C308.457 16.797 289.504 30.8994 272.771 28.4966L272.742 28.4925L272.714 28.4901C255.584 27.0353 244.01 10.9009 246.311 -2.73447L246.316 -2.76285L246.319 -2.79144C247.848 -16.8133 261.541 -25.6945 272.436 -23.5107L272.465 -23.505L272.494 -23.5009C283.823 -21.9222 290.115 -11.0017 288.049 -3.14737L288.042 -3.12027L288.037 -3.09277C287.202 1.02045 284.716 4.02591 281.777 5.75858C278.814 7.50552 275.481 7.91232 272.978 6.97064L272.946 6.95853L272.913 6.94867C270.204 6.14008 268.547 4.3371 267.784 2.46268C266.999 0.533112 267.204 -1.31815 267.956 -2.30139L267.982 -2.33585L268.005 -2.37241C268.774 -3.58551 269.818 -3.89673 270.577 -3.80814C271.449 -3.70648 271.67 -3.22116 271.649 -2.98441C271.601 -2.44342 272.001 -1.96609 272.544 -1.91827C273.086 -1.87042 273.564 -2.27017 273.612 -2.81116C273.767 -4.55618 272.225 -5.59604 270.806 -5.76151C269.286 -5.93887 267.526 -5.2692 266.362 -3.45886C265.08 -1.74774 265.011 0.876556 265.958 3.20261C266.93 5.59186 269.022 7.82944 272.315 8.82291C275.493 10.0045 279.437 9.42291 282.78 7.45172C286.153 5.46307 289.005 2.01318 289.964 -2.67844C292.325 -11.7425 285.177 -23.7022 272.795 -25.4446C260.745 -27.8399 246.027 -18.1425 244.363 -3.03311C241.882 11.7802 254.327 28.8855 272.518 30.4473C290.389 32.9947 310.327 18.0573 311.817 -2.8006C314.43 -23.3453 296.743 -45.6806 272.713 -47.0321C248.985 -49.707 223.856 -29.6087 222.524 -2.97385C219.747 23.3764 242.69 50.7884 272.563 52.0284C302.062 54.8052 332.525 29.6132 333.652 -2.83609C336.577 -34.956 308.392 -67.5319 272.687 -68.611C237.343 -71.5688 201.655 -41.1516 200.689 -2.94998C197.626 34.9125 231.041 72.7165 272.583 73.6065C313.755 76.7127 354.678 41.117 355.486 -2.85211C358.742 -46.4774 320.023 -89.4551 272.672 -90.1887C225.69 -93.4469 179.475 -52.6715 178.858 -2.93784C175.457 46.4507 219.395 94.6061 272.593 95.184C325.449 98.593 376.817 52.6254 377.317 -2.86215C380.83 -57.9999 331.737 -111.377 272.664 -111.766C213.973 -115.358 157.366 -64.1696 157.025 -2.92996C153.36 57.9638 207.694 116.527 272.6 116.761C337.11 120.505 398.987 64.1391 399.15 -2.86813C403.022 -69.5254 343.344 -133.266 272.658 -133.343C202.316 -137.24 135.188 -75.6953 135.192 -2.92438C131.187 69.4854 196.043 138.446 272.605 138.338C348.777 142.419 421.133 75.6437 420.982 -2.87247C425.154 -81.088 355.014 -155.143 272.654 -154.92C190.659 -159.113 113.021 -87.2518 113.359 -2.9209C109.014 81.0697 184.403 160.282 272.608 159.916C360.434 164.252 443.31 87.2203 442.815 -2.87576C447.327 -92.6076 366.656 -177.06 272.651 -176.498C178.96 -181.019 90.8856 -98.7658 91.5288 -2.91791C86.8714 92.5801 172.741 182.21 272.611 181.493C372.11 186.167 465.477 98.737 464.647 -2.8783C469.491 -104.14 378.328 -198.947 272.649 -198.075C167.272 -202.903 68.7516 -110.294 69.6961 -2.9166C64.7389 104.089 161.047 204.127 272.613 203.07C383.831 208.092 487.57 110.242 486.479 -2.88016C491.592 -115.657 390.045 -220.854 272.647 -219.652C155.617 -224.827 46.575 -121.799 47.8633 -2.91464C42.5749 115.629 149.393 226.003 272.614 224.647C395.475 229.966 509.746 121.769 508.311 -2.8819C513.767 -127.167 401.687 -242.77 272.646 -241.229C143.95 -246.744 24.43 -133.306 26.0306 -2.91284C20.4214 127.18 137.74 247.879 272.616 246.224C407.088 251.841 531.943 133.328 530.144 -2.88333C535.931 -138.749 413.339 -264.617 272.644 -262.806C132.306 -268.576 2.25439 -144.886 4.19995 -2.91266C-1.75397 138.698 126.088 269.796 272.617 267.802C418.795 273.757 554.094 144.829 551.975 -2.91183C551.968 -3.45486 551.52 -3.88876 550.976 -3.88101C550.432 -3.87323 549.997 -3.42673 550.004 -2.8837Z" fill="white"/>
</g>
<defs>
<filter id="filter0_d_2_203" x="-6.10352e-05" y="-263" width="556" height="539" filterUnits="userSpaceOnUse" color-interpolation-filters="sRGB">
<feFlood flood-opacity="0" result="BackgroundImageFix"/>
<feColorMatrix in="SourceAlpha" type="matrix" values="0 0 0 0 0 0 0 0 0 0 0 0 0 0 0 0 0 0 127 0" result="hardAlpha"/>
<feOffset dy="4"/>
<feGaussianBlur stdDeviation="2"/>
<feComposite in2="hardAlpha" operator="out"/>
<feColorMatrix type="matrix" values="0 0 0 0 0 0 0 0 0 0 0 0 0 0 0 0 0 0 0.25 0"/>
<feBlend mode="normal" in2="BackgroundImageFix" result="effect1_dropShadow_2_203"/>
<feBlend mode="normal" in="SourceGraphic" in2="effect1_dropShadow_2_203" result="shape"/>
</filter>
</defs>
</svg>
