<svg width="153" height="168" viewBox="0 0 153 168" fill="none" xmlns="http://www.w3.org/2000/svg">
<path opacity="0.5" fill-rule="evenodd" clip-rule="evenodd" d="M478.252 232.364C480.093 363.328 362.403 477.707 235.332 472.413L235.308 472.412L235.285 472.412C107.891 474.195 -3.28652 357.879 1.90134 232.388L1.9023 232.364L1.90196 232.339C0.196048 106.517 113.296 -3.19949 235.261 1.9297L235.284 1.93068L235.308 1.93041C357.592 0.310875 464.171 111.956 459.13 232.314L459.129 232.339L459.129 232.363C460.707 353.038 352.16 458.129 235.333 453.138L235.309 453.137L235.286 453.137C118.099 454.618 16.1378 347.591 21.0229 232.389L21.024 232.365L21.0236 232.341C19.6191 116.862 123.495 16.3051 235.26 21.2046L235.283 21.2057L235.307 21.2053C347.383 19.8255 444.756 122.299 440.007 232.313L440.006 232.337L440.006 232.362C441.266 342.711 341.989 438.587 235.334 433.863L235.311 433.862L235.287 433.862C128.309 435.077 35.5438 337.275 40.1464 232.391L40.1475 232.366L40.1473 232.342C39.0145 127.144 133.712 35.8845 235.258 40.4795L235.282 40.4806L235.306 40.4803C337.183 39.4015 425.332 132.578 420.884 232.312L420.883 232.336L420.883 232.36C421.843 332.412 331.791 419.045 235.336 414.588L235.312 414.587L235.288 414.587C138.519 415.537 54.9592 326.97 59.2699 232.392L59.271 232.368L59.2708 232.344C58.4374 137.424 143.917 55.4715 235.257 59.7544L235.28 59.7555L235.304 59.7553C326.918 58.9699 405.971 142.865 401.761 232.309L401.759 232.334L401.76 232.359C402.493 322.13 321.529 399.457 235.337 395.313L235.314 395.312L235.29 395.312C148.765 395.96 74.3472 316.691 78.3934 232.394L78.3945 232.37L78.3944 232.345C77.8231 147.725 154.152 75.0232 235.255 79.0292L235.278 79.0304L235.302 79.0303C316.691 78.5195 386.555 153.163 382.638 232.307L382.636 232.332L382.637 232.356C383.08 311.837 311.306 379.878 235.339 376.038L235.316 376.037L235.293 376.037C158.982 376.375 93.7447 306.412 97.5149 232.397L97.5162 232.372L97.5161 232.348C97.2086 158.016 164.393 94.5939 235.252 98.3041L235.276 98.3053L235.299 98.3052C306.489 98.0947 367.13 163.449 363.515 232.305L363.513 232.329L363.513 232.353C363.658 301.493 301.099 360.371 235.343 356.763L235.319 356.762L235.295 356.762C169.186 356.871 113.17 296.071 116.638 232.4L116.64 232.376V232.351C116.621 168.345 174.599 114.137 235.249 117.579L235.272 117.58H235.296C296.261 117.634 347.741 173.771 344.392 232.3L344.39 232.325L344.39 232.35C344.264 291.209 290.887 340.791 235.347 337.488L235.323 337.487L235.3 337.487C179.398 337.296 132.596 285.787 135.762 232.404L135.763 232.38L135.763 232.356C136.042 178.648 184.802 133.691 235.244 136.853L235.267 136.855L235.291 136.855C286.084 137.182 328.296 184.055 325.268 232.295L325.267 232.32L325.267 232.344C324.852 280.914 280.683 321.21 235.353 318.214L235.329 318.212L235.306 318.212C189.655 317.72 151.959 275.511 154.885 232.412L154.886 232.387L154.887 232.362C155.4 188.934 195.05 153.271 235.236 156.128L235.26 156.13L235.284 156.13C275.815 156.756 308.94 194.338 306.147 232.286L306.145 232.311L306.145 232.336C305.47 270.618 270.457 301.655 235.362 298.94L235.339 298.938L235.315 298.937C199.873 298.177 171.389 265.223 174.006 232.423L174.008 232.398L174.008 232.373C174.815 199.243 205.237 172.828 235.224 175.402L235.247 175.404L235.271 175.405C265.606 176.326 289.51 204.606 287.025 232.271L287.023 232.296L287.022 232.321C286.082 260.313 260.245 282.068 235.378 279.666L235.355 279.664L235.332 279.663C210.103 278.608 190.787 254.949 193.127 232.444L193.13 232.419L193.131 232.395C194.236 209.584 215.4 192.382 235.199 194.674L235.224 194.677L235.249 194.679C255.355 195.818 270.08 214.922 267.905 232.24L267.902 232.265L267.9 232.29C266.678 249.945 250.077 262.543 235.42 260.396L235.395 260.393L235.37 260.39C220.366 259.091 210.228 244.678 212.244 232.497L212.248 232.472L212.25 232.446C213.589 219.921 225.583 211.987 235.127 213.938L235.152 213.943L235.177 213.946C245.1 215.357 250.612 225.112 248.802 232.128L248.796 232.153L248.791 232.177C248.061 235.852 245.882 238.536 243.308 240.084C240.713 241.645 237.794 242.008 235.601 241.167L235.573 241.156L235.544 241.147C233.171 240.425 231.72 238.814 231.052 237.14C230.364 235.416 230.544 233.763 231.202 232.884L231.225 232.853L231.246 232.821C231.919 231.737 232.833 231.459 233.498 231.538C234.262 231.629 234.455 232.063 234.437 232.274C234.395 232.757 234.746 233.184 235.221 233.226C235.696 233.269 236.115 232.912 236.157 232.429C236.292 230.87 234.941 229.941 233.699 229.793C232.367 229.635 230.826 230.233 229.806 231.85C228.683 233.379 228.623 235.723 229.452 237.801C230.304 239.935 232.136 241.934 235.02 242.822C237.804 243.877 241.258 243.358 244.187 241.597C247.141 239.82 249.64 236.738 250.479 232.547C252.548 224.45 246.286 213.767 235.441 212.21C224.886 210.07 211.995 218.733 210.537 232.231C208.364 245.463 219.265 260.744 235.198 262.139C250.852 264.414 268.316 251.071 269.62 232.438C271.91 214.086 256.417 194.133 235.369 192.926C214.585 190.536 192.574 208.49 191.408 232.283C188.975 255.822 209.071 280.31 235.238 281.417C261.076 283.898 287.759 261.394 288.747 232.407C291.308 203.714 266.621 174.613 235.346 173.649C204.388 171.007 173.129 198.179 172.283 232.305C169.6 266.128 198.868 299.898 235.255 300.693C271.318 303.468 307.163 271.67 307.871 232.392C310.723 193.421 276.809 155.029 235.333 154.374C194.181 151.463 153.7 187.888 153.16 232.316C150.181 276.435 188.668 319.452 235.264 319.969C281.561 323.014 326.555 281.951 326.993 232.383C330.07 183.128 287.069 135.446 235.326 135.098C183.918 131.89 134.336 177.617 134.037 232.323C130.826 286.72 178.418 339.035 235.27 339.244C291.775 342.589 345.974 292.236 346.117 232.378C349.509 172.832 297.235 115.893 235.321 115.823C173.708 112.342 114.909 167.321 114.913 232.328C111.405 297.012 168.213 358.615 235.274 358.519C301.995 362.165 365.372 302.513 365.24 232.374C368.894 162.503 307.458 96.3491 235.317 96.5483C163.497 92.8028 95.4925 156.997 95.7893 232.331C91.9827 307.36 158.017 378.121 235.277 377.794C312.205 381.667 384.797 312.855 384.363 232.371C388.316 152.213 317.655 76.771 235.315 77.2733C153.25 73.2346 76.1042 146.712 76.6676 232.333C72.5881 317.643 147.802 397.71 235.279 397.069C322.432 401.244 404.213 323.143 403.486 232.369C407.729 141.911 327.878 57.2191 235.313 57.9983C143.012 53.6852 56.7168 136.414 57.5441 232.335C53.2019 327.924 137.559 417.289 235.281 416.344C332.699 420.83 423.565 333.42 422.61 232.367C427.088 131.623 338.141 37.6489 235.311 38.7234C132.804 34.0998 37.2919 126.136 38.4205 232.336C33.7883 338.232 127.352 436.831 235.283 435.619C342.898 440.371 442.989 343.718 441.733 232.366C446.511 121.341 348.339 18.0714 235.31 19.4484C122.584 14.5217 17.8949 115.857 19.2969 232.338C14.3838 348.551 117.145 456.373 235.284 454.894C353.07 459.911 462.432 354.043 460.856 232.364C465.925 110.994 358.545 -1.44456 235.308 0.173369C112.385 -4.98129 -1.52899 105.512 0.175177 232.338C-5.03993 358.84 106.938 475.951 235.285 474.169C363.324 479.489 481.834 364.317 479.978 232.339C479.972 231.854 479.58 231.466 479.103 231.473C478.626 231.48 478.245 231.879 478.252 232.364Z" fill="white"/>
</svg>
