<svg width="36" height="48" viewBox="0 0 36 48" fill="none" xmlns="http://www.w3.org/2000/svg">
<path d="M18 0C8.27859 0 0.369507 7.90893 0.369507 17.6305C0.369507 27.0424 16.4423 46.4801 17.1265 47.3029C17.3423 47.5623 17.6624 47.7126 18 47.7126C18.3375 47.7126 18.6577 47.5625 18.8735 47.3029C19.5578 46.4799 35.6305 27.0424 35.6305 17.6305C35.6305 7.90893 27.7215 0 18 0ZM18 44.7738C16.5748 42.9942 13.6138 39.2026 10.6836 34.8682C5.4225 27.0859 2.64154 21.1252 2.64154 17.6305C2.64154 9.16173 9.53139 2.27203 18 2.27203C26.4686 2.27203 33.3584 9.16173 33.3584 17.6305C33.3584 21.125 30.5776 27.0858 25.3164 34.8682C22.3861 39.2026 19.4252 42.9942 18 44.7738Z" fill="white"/>
<path d="M18 8.70947C12.8636 8.70947 8.68469 12.8883 8.68469 18.0248C8.68469 23.1612 12.8636 27.3401 18 27.3401C23.1365 27.3401 27.3153 23.1612 27.3153 18.0248C27.3153 12.8883 23.1365 8.70947 18 8.70947ZM18 25.0681C14.1164 25.0681 10.9567 21.9084 10.9567 18.0248C10.9567 14.1411 14.1164 10.9815 18 10.9815C21.8838 10.9815 25.0433 14.1411 25.0433 18.0248C25.0433 21.9084 21.8838 25.0681 18 25.0681Z" fill="white"/>
</svg>
