<svg width="495" height="493" viewBox="0 0 495 493" fill="none" xmlns="http://www.w3.org/2000/svg">
<path d="M185.159 378.09L156.902 305.386H184.504L194.651 339.612C195.378 342.083 195.924 345.317 196.287 349.313H196.942C197.087 345.971 197.597 342.737 198.469 339.612L208.398 305.386H236L207.852 378.09H185.159Z" fill="white"/>
<path d="M269.67 378.09H243.267V305.386H269.67V378.09Z" fill="white"/>
<path d="M309.489 378.09H284.287V305.386H309.489L326.4 332.854C329.309 337.578 331.601 341.865 333.273 345.716H334.037C332.51 339.322 331.746 333.581 331.746 328.494V305.386H357.057V378.09H331.746L313.635 349.422C312.035 346.879 310.362 343.718 308.617 339.939H307.853C308.944 345.535 309.489 350.004 309.489 353.346V378.09Z" fill="white"/>
<path d="M388.891 346.806L363.58 305.386H393.473L399.692 318.684C400.492 320.574 401.147 322.499 401.656 324.461H402.42C402.638 323.444 403.293 321.518 404.384 318.684L410.057 305.386H439.842L414.966 346.806V378.09H388.891V346.806Z" fill="white"/>
<path d="M495 378.09H446.341V305.386H472.743V354.654H495V378.09Z" fill="white"/>
<path d="M126.572 340.114L136.794 350.023C134.012 353.57 130.848 356.942 127.302 360.141L142.844 376.622H120.313L114.263 370.259C107.031 375.544 99.2427 378.187 90.8979 378.187C83.4572 378.187 77.7549 376.239 73.7912 372.345C70.036 368.729 68.1584 364.14 68.1584 358.576C68.1584 353.152 69.8969 348.702 73.3739 345.225C76.1555 342.374 79.9454 340.114 84.7436 338.445C83.2138 336.637 81.8578 334.794 80.6756 332.916C79.0762 330.274 78.2765 327.423 78.2765 324.363C78.2765 319.565 80.0497 315.323 83.5962 311.637C87.6295 307.534 93.0884 305.483 99.9728 305.483C106.788 305.483 112.177 307.395 116.141 311.22C119.826 314.836 121.669 319.182 121.669 324.259C121.669 328.501 120.07 332.221 116.871 335.42C114.507 337.784 111.795 339.592 108.735 340.844L117.497 350.023C120.835 346.963 123.86 343.66 126.572 340.114ZM104.354 359.307L93.4013 347.52C89.0203 350.023 86.8298 352.735 86.8298 355.656C86.8298 357.603 87.5252 359.167 88.916 360.35C90.3764 361.671 92.3582 362.332 94.8617 362.332C97.9909 362.332 101.155 361.323 104.354 359.307ZM95.3832 323.528C95.3832 324.85 96.0091 326.414 97.2608 328.222C98.0953 329.474 99.3122 330.865 100.912 332.395C102.372 331.63 103.763 330.587 105.084 329.265C106.544 327.597 107.274 325.893 107.274 324.154C107.274 322.068 106.649 320.469 105.397 319.356C104.215 318.313 102.824 317.791 101.225 317.791C99.6251 317.791 98.3039 318.278 97.2608 319.252C96.0091 320.364 95.3832 321.79 95.3832 323.528Z" fill="white"/>
<path d="M35.2697 122.263C29.9534 129.246 31.4115 139.007 38.537 144.137L59.9068 159.522C63.1557 161.861 67.2063 162.93 71.2593 162.517L239.447 145.388C248.761 144.44 255.409 136.125 253.986 127.205L248.406 92.239C247.094 84.0177 239.362 78.277 230.777 79.1512L61.634 96.3767C57.0416 96.8444 52.851 99.1714 50.1044 102.779L35.2697 122.263Z" fill="black"/>
<path d="M35.2697 122.263C29.9534 129.246 31.4115 139.007 38.537 144.137L59.9068 159.522C63.1557 161.861 67.2063 162.93 71.2593 162.517L239.447 145.388C248.761 144.44 255.409 136.125 253.986 127.205L248.406 92.239C247.094 84.0177 239.362 78.277 230.777 79.1512L61.634 96.3767C57.0416 96.8444 52.851 99.1714 50.1044 102.779L35.2697 122.263Z" fill="url(#paint0_linear_134_18)"/>
<path d="M44.9633 132.164C44.6258 129.858 42.4127 128.259 40.0204 128.592C37.6279 128.925 35.9621 131.065 36.2995 133.37C36.637 135.676 38.85 137.275 41.2424 136.942C43.6348 136.609 45.3007 134.469 44.9633 132.164Z" fill="black"/>
<path d="M86.8602 103.302L87.1728 107.863L72.3055 108.882L73.1855 121.72L87.5357 120.737L87.8484 125.299L73.4981 126.282L74.9722 147.788L70.1888 148.115L67.2094 104.648L86.8602 103.302Z" fill="black"/>
<path d="M95.2372 102.727L102.154 102.253C106.808 101.934 110.354 102.499 112.791 103.947C116.083 105.86 117.876 108.967 118.171 113.268C118.4 116.613 117.578 119.463 115.704 121.818C113.874 124.169 111.35 125.565 108.133 126.003L123.168 144.484L117.35 144.883L102.924 126.753L101.696 126.837L103 145.866L98.2165 146.194L95.2372 102.727ZM100.333 106.961L101.401 122.536L104.439 122.328C107.412 122.124 109.692 121.27 111.277 119.764C112.863 118.259 113.569 116.246 113.396 113.726C113.194 110.772 111.906 108.722 109.532 107.575C108.011 106.85 105.914 106.579 103.242 106.762L100.333 106.961Z" fill="black"/>
<path d="M150.049 98.9703L150.362 103.532L132.78 104.737L133.664 117.64L150.729 116.471L151.042 121.033L133.977 122.202L135.134 139.081L152.716 137.876L153.029 142.437L130.663 143.97L127.684 100.503L150.049 98.9703Z" fill="black"/>
<path d="M182.36 102.845L178.72 105.648C177.938 104.348 177.024 103.32 175.976 102.562C174.615 101.651 172.964 101.263 171.025 101.396C168.87 101.543 167.168 102.293 165.919 103.644C164.666 104.952 164.109 106.606 164.246 108.604C164.347 110.081 164.972 111.304 166.121 112.273C167.042 113.083 168.613 113.892 170.833 114.7L175.095 116.241C178.247 117.378 180.56 118.595 182.035 119.89C184.246 121.834 185.46 124.391 185.678 127.563C185.949 131.516 184.876 134.82 182.46 137.474C180.045 140.127 176.876 141.588 172.954 141.857C169.076 142.123 165.871 141.164 163.34 138.981C161.27 137.202 159.758 134.73 158.805 131.566L163.37 129.943C163.821 132.095 164.809 133.882 166.335 135.305C168.04 136.803 170.164 137.465 172.706 137.291C175.464 137.102 177.541 136.13 178.936 134.376C180.328 132.578 180.942 130.485 180.778 128.095C180.636 126.01 179.808 124.364 178.297 123.158C177.425 122.432 175.632 121.551 172.92 120.515L168.917 118.956C166.205 117.92 164.205 116.857 162.918 115.766C160.805 113.991 159.651 111.691 159.458 108.867C159.228 105.522 160.164 102.751 162.265 100.556C164.406 98.3137 167.243 97.0716 170.777 96.8294C173.449 96.6462 175.799 97.1399 177.828 98.3103C179.675 99.3623 181.186 100.874 182.36 102.845Z" fill="black"/>
<path d="M197.108 95.7448L198.318 113.405L220.425 111.89L219.215 94.2295L223.998 93.9016L226.978 137.369L222.194 137.696L220.738 116.452L198.631 117.967L200.087 139.212L195.304 139.54L192.324 96.0727L197.108 95.7448Z" fill="black"/>
<path d="M250.482 420.5C230.719 420.5 214.699 436.521 214.699 456.283C214.699 476.044 230.719 492.066 250.482 492.066C270.243 492.066 286.265 476.044 286.265 456.283C286.265 436.521 270.243 420.5 250.482 420.5ZM250.482 457.774C249.659 457.774 248.99 457.107 248.99 456.283C248.99 455.46 249.659 454.793 250.482 454.793C251.305 454.793 251.971 455.46 251.971 456.283C251.971 457.107 251.305 457.774 250.482 457.774Z" fill="#FAECCD"/>
<path d="M250.482 420.5C230.719 420.5 214.699 436.521 214.699 456.283C214.699 476.044 230.719 492.066 250.482 492.066C270.243 492.066 286.265 476.044 286.265 456.283C286.265 436.521 270.243 420.5 250.482 420.5ZM250.482 457.774C249.659 457.774 248.99 457.107 248.99 456.283C248.99 455.46 249.659 454.793 250.482 454.793C251.305 454.793 251.971 455.46 251.971 456.283C251.971 457.107 251.305 457.774 250.482 457.774Z" fill="url(#paint1_linear_134_18)"/>
<path fill-rule="evenodd" clip-rule="evenodd" d="M250.328 424.619C232.925 424.619 218.818 438.727 218.818 456.129C218.818 473.53 232.925 487.639 250.328 487.639C267.729 487.639 281.838 473.53 281.838 456.129C281.838 438.727 267.729 424.619 250.328 424.619ZM250.328 457.763C249.426 457.763 248.693 457.032 248.693 456.129C248.693 455.226 249.426 454.495 250.328 454.495C251.231 454.495 251.961 455.227 251.961 456.129C251.961 457.031 251.231 457.763 250.328 457.763ZM218.51 456.129C218.51 438.557 232.755 424.311 250.328 424.311C267.9 424.311 282.146 438.557 282.146 456.129C282.146 473.7 267.9 487.947 250.328 487.947C232.755 487.947 218.51 473.7 218.51 456.129ZM249.002 456.129C249.002 456.861 249.596 457.454 250.328 457.454C251.06 457.454 251.653 456.861 251.653 456.129C251.653 455.397 251.06 454.804 250.328 454.804C249.596 454.804 249.002 455.397 249.002 456.129Z" fill="black"/>
<path fill-rule="evenodd" clip-rule="evenodd" d="M250.596 428.855C235.383 428.855 223.053 441.187 223.053 456.398C223.053 471.609 235.383 483.942 250.596 483.942C265.807 483.942 278.139 471.609 278.139 456.398C278.139 441.187 265.807 428.855 250.596 428.855ZM250.596 457.867C249.785 457.867 249.127 457.21 249.127 456.398C249.127 455.587 249.785 454.93 250.596 454.93C251.407 454.93 252.064 455.587 252.064 456.398C252.064 457.209 251.407 457.867 250.596 457.867ZM222.744 456.398C222.744 441.016 235.213 428.547 250.596 428.547C265.977 428.547 278.448 441.016 278.448 456.398C278.448 471.779 265.977 484.25 250.596 484.25C235.213 484.25 222.744 471.779 222.744 456.398ZM249.435 456.398C249.435 457.039 249.955 457.559 250.596 457.559C251.237 457.559 251.755 457.039 251.755 456.398C251.755 455.757 251.237 455.238 250.596 455.238C249.955 455.238 249.435 455.757 249.435 456.398Z" fill="black"/>
<path fill-rule="evenodd" clip-rule="evenodd" d="M250.441 432.666C237.419 432.666 226.864 443.222 226.864 456.243C226.864 469.263 237.419 479.82 250.441 479.82C263.462 479.82 274.018 469.263 274.018 456.243C274.018 443.222 263.462 432.666 250.441 432.666ZM250.441 457.546C249.722 457.546 249.137 456.963 249.137 456.243C249.137 455.523 249.722 454.94 250.441 454.94C251.161 454.94 251.744 455.523 251.744 456.243C251.744 456.962 251.161 457.546 250.441 457.546ZM226.556 456.243C226.556 443.051 237.249 432.357 250.441 432.357C263.632 432.357 274.327 443.051 274.327 456.243C274.327 469.433 263.632 480.128 250.441 480.128C237.249 480.128 226.556 469.433 226.556 456.243ZM249.446 456.243C249.446 456.792 249.892 457.238 250.441 457.238C250.991 457.238 251.435 456.792 251.435 456.243C251.435 455.693 250.991 455.248 250.441 455.248C249.892 455.248 249.446 455.693 249.446 456.243Z" fill="black"/>
<path fill-rule="evenodd" clip-rule="evenodd" d="M250.286 436.478C239.455 436.478 230.676 445.258 230.676 456.088C230.676 466.918 239.455 475.699 250.286 475.699C261.116 475.699 269.897 466.918 269.897 456.088C269.897 445.258 261.116 436.478 250.286 436.478ZM250.286 457.226C249.658 457.226 249.148 456.717 249.148 456.088C249.148 455.459 249.658 454.95 250.286 454.95C250.915 454.95 251.424 455.46 251.424 456.088C251.424 456.717 250.915 457.226 250.286 457.226ZM230.367 456.088C230.367 445.088 239.285 436.169 250.286 436.169C261.287 436.169 270.205 445.088 270.205 456.088C270.205 467.089 261.287 476.007 250.286 476.007C239.285 476.007 230.367 467.089 230.367 456.088ZM249.456 456.088C249.456 456.547 249.828 456.918 250.286 456.918C250.745 456.918 251.116 456.547 251.116 456.088C251.116 455.63 250.745 455.259 250.286 455.259C249.828 455.259 249.456 455.63 249.456 456.088Z" fill="black"/>
<path fill-rule="evenodd" clip-rule="evenodd" d="M250.554 440.713C241.914 440.713 234.91 447.717 234.91 456.357C234.91 464.996 241.914 472.001 250.554 472.001C259.194 472.001 266.199 464.996 266.199 456.357C266.199 447.717 259.194 440.713 250.554 440.713ZM250.554 457.33C250.017 457.33 249.581 456.895 249.581 456.357C249.581 455.819 250.017 455.384 250.554 455.384C251.092 455.384 251.527 455.82 251.527 456.357C251.527 456.894 251.092 457.33 250.554 457.33ZM234.602 456.357C234.602 447.547 241.743 440.404 250.554 440.404C259.364 440.404 266.507 447.547 266.507 456.357C266.507 465.167 259.364 472.31 250.554 472.31C241.743 472.31 234.602 465.167 234.602 456.357ZM249.889 456.357C249.889 456.724 250.187 457.021 250.554 457.021C250.921 457.021 251.218 456.724 251.218 456.357C251.218 455.99 250.921 455.692 250.554 455.692C250.187 455.692 249.889 455.99 249.889 456.357Z" fill="black"/>
<path d="M250.425 444.299C243.838 444.299 238.496 449.64 238.496 456.227C238.496 462.814 243.838 468.157 250.425 468.157C257.012 468.157 262.352 462.814 262.352 456.227C262.352 449.64 257.012 444.299 250.425 444.299Z" fill="black"/>
<path d="M250.587 454.803C249.711 454.803 249 455.514 249 456.39C249 457.266 249.711 457.977 250.587 457.977C251.463 457.977 252.173 457.266 252.173 456.39C252.173 455.514 251.463 454.803 250.587 454.803Z" fill="white"/>
<path d="M77.7981 209.992C75.2617 213.895 71.0907 217.127 66.676 218.559C62.1461 220.028 57.4562 219.163 53.241 217.081C48.4185 214.685 43.3911 210.452 41.4719 205.305C39.2194 199.35 44.0527 192.305 50.5444 192.773C52.2249 192.872 56.1965 196.021 53.7293 197.594C51.2999 199.205 46.7067 196.812 44.6195 195.676C38.2438 192.228 33.5873 185.974 33.0346 178.666C32.5206 171.32 36.3909 164.835 40.783 159.351C43.6587 155.796 47.2254 152.022 47.8234 147.29C48.6812 140.268 43.4896 134.007 39.1969 129.134C38.67 128.515 37.7794 129.383 38.3063 130.001C41.9589 134.14 46.0977 139.087 46.6707 144.866C47.0051 148.464 45.2422 151.689 43.141 154.49C38.0804 161.379 32.6142 167.155 31.8452 176.127C31.0364 185.213 37.0454 193.244 44.8662 197.246C47.2581 198.463 57.2689 201.616 55.4026 195.361C53.9043 190.181 47.43 191.279 44.0721 193.719C38.5529 197.736 38.8436 204.62 42.5595 209.753C47.7012 216.893 57.3004 222.257 66.1593 220.043C71.1447 218.81 75.5502 215.199 78.5482 211.072C78.6267 210.92 78.7428 210.807 78.8213 210.655C79.289 209.974 78.2271 209.348 77.7981 209.992Z" fill="#626771"/>
<path d="M95.1129 264.537H67.9689V186.809H95.1129V213.146H112.355V186.809H139.499V264.537H112.355V237.501H95.1129V264.537Z" fill="white"/>
<path d="M183.307 264.537H155.115V186.809H183.307V264.537Z" fill="white"/>
<path d="M233.632 244.144H196.935V223.168H233.632V244.144Z" fill="white"/>
<path d="M275.459 264.537H247.267V186.809H299.108V208.951H275.459V216.875H296.196V237.385H275.459V264.537Z" fill="white"/>
<path d="M338.6 264.537H310.408V186.809H338.6V264.537Z" fill="white"/>
<path d="M122.608 425.272L115.828 443.005C110.821 439.528 106.092 437.789 101.642 437.789C99.5556 437.789 97.9562 438.206 96.8435 439.041C96.0091 439.667 95.5918 440.501 95.5918 441.544C95.5918 442.17 95.6614 442.657 95.8005 443.005C95.9395 443.352 96.322 443.735 96.9479 444.152C97.5737 444.569 98.4777 444.917 99.6599 445.195L107.692 446.968C112.768 448.081 116.732 450.063 119.583 452.914C123.13 456.391 124.903 460.981 124.903 466.683C124.903 473.22 122.817 478.679 118.644 483.06C112.872 488.97 104.702 491.926 94.1315 491.926C90.8631 491.926 87.5948 491.578 84.3264 490.883C81.058 490.257 78.6589 489.666 77.1291 489.109C75.5992 488.553 73.3739 487.684 70.4533 486.502L68.1584 485.563L75.773 465.953L78.4851 468.039C82.9356 471.446 87.6295 473.15 92.5669 473.15C95.1398 473.15 96.9479 472.733 97.9909 471.898C98.895 471.133 99.347 470.09 99.347 468.769C99.347 467.726 99.0688 466.926 98.5125 466.37C97.9562 465.814 96.3568 465.257 93.7143 464.701L87.56 463.554C82.4141 462.58 78.3808 460.598 75.4601 457.608C72.1222 454.201 70.4533 449.924 70.4533 444.778C70.4533 438.241 72.7133 432.713 77.2334 428.193C83.0747 422.212 91.1413 419.222 101.433 419.222C108.874 419.222 115.932 421.239 122.608 425.272Z" fill="white"/>
<path d="M160.072 490.361H135.768V420.787H160.072V444.361H175.51V420.787H199.814V490.361H175.51V466.161H160.072V490.361Z" fill="white"/>
<path d="M316.171 490.361L291.763 420.787H317.945L325.559 453.749C326.324 457.295 326.707 460.146 326.707 462.302H327.332C327.541 458.408 328.132 454.514 329.106 450.619L336.72 420.787H356.122L364.154 452.497C364.849 455.209 365.336 458.477 365.614 462.302H366.135C366.205 459.103 366.727 455.383 367.7 451.141L374.897 420.787H401.183L376.671 490.361H354.661L348.09 461.989C347.395 458.79 346.943 455.626 346.734 452.497H345.899C345.691 456.739 345.343 459.903 344.856 461.989L337.659 490.361H316.171Z" fill="white"/>
<defs>
<linearGradient id="paint0_linear_134_18" x1="187.933" y1="229.92" x2="48.2391" y2="107.594" gradientUnits="userSpaceOnUse">
<stop stop-color="#A89365"/>
<stop offset="0.494792" stop-color="#CBB585"/>
<stop offset="1" stop-color="#A89365"/>
</linearGradient>
<linearGradient id="paint1_linear_134_18" x1="215.821" y1="428.571" x2="285.167" y2="432.341" gradientUnits="userSpaceOnUse">
<stop stop-color="#A89365"/>
<stop offset="0.494792" stop-color="#CBB585"/>
<stop offset="1" stop-color="#A89365"/>
</linearGradient>
</defs>
</svg>
